<svg width="26" height="23" viewBox="0 0 26 23" fill="none" xmlns="http://www.w3.org/2000/svg">
<path d="M4.14417 3.8075H8.54286L12.9416 11.4316H8.90273L4.14417 3.8075Z" fill="#5ED9A6"/>
<path d="M8.54303 3.80953L10.7457 0L14.9637 7.93038L12.9417 11.4303L8.54303 3.80785V3.80953Z" fill="#3CB989"/>
<path d="M5.86012 0.835223L4.14282 3.80786H8.54152L10.7442 6.5404e-06H7.31129C6.71375 -0.00166724 6.15973 0.318025 5.8618 0.835223H5.86012Z" fill="#1E8A7A"/>
<path d="M12.9398 11.4303H21.7389L23.9399 7.62244L14.9617 7.93041L12.9398 11.4303Z" fill="#3CB989"/>
<path d="M21.7392 11.4333L23.9369 15.2445L25.6542 12.2719C25.9538 11.7547 25.9538 11.117 25.6542 10.5981L23.9386 7.62378L21.7375 11.4333H21.7392Z" fill="#1E8A7A"/>
<path d="M12.9398 11.4299L14.9601 14.9298L23.9366 15.2428L21.7389 11.4316H12.9398V11.4299Z" fill="#5ED9A6"/>
<path d="M12.9398 11.4299L8.53776 19.0473H4.13739L8.90097 11.4299H12.9398Z" fill="#3CB989"/>
<path d="M8.53827 19.0494L10.7359 22.8606L14.9606 14.9319L12.9403 11.432L8.53827 19.0494Z" fill="#1E8A7A"/>
<path d="M4.13739 19.0477L5.85302 22.022C6.15262 22.5392 6.70497 22.8589 7.30251 22.8589H10.7371L8.53944 19.0494H4.13906L4.13739 19.0477Z" fill="#5ED9A6"/>
<path d="M19.411 0.224287L14.9621 7.93038L12.8565 3.96184L15.1429 0H18.5775C18.8754 0.00167378 19.16 0.0820152 19.411 0.224287Z" fill="url(#paint0_linear_1_1746)"/>
<path d="M21.7389 3.80781L19.4509 7.78137L14.9618 7.93033L19.4107 0.224243C19.6618 0.368188 19.876 0.577411 20.025 0.838521L21.7389 3.80781Z" fill="url(#paint1_linear_1_1746)"/>
<path d="M21.7356 19.0491L19.9815 22.087C19.8358 22.3163 19.6383 22.5038 19.409 22.636L15.1426 15.2396L14.9618 14.9299L19.4525 15.0873L21.7373 19.0491H21.7356Z" fill="url(#paint2_linear_1_1746)"/>
<path d="M14.96 14.9303L12.8477 18.8938L15.1324 22.8556H18.6825H18.6859C18.9436 22.8372 19.188 22.7602 19.4056 22.6347L14.9584 14.9286L14.96 14.9303Z" fill="url(#paint3_linear_1_1746)"/>
<path d="M6.5244 7.62048H1.93824L0.207549 10.6199C0.068625 10.8726 0 11.1522 0 11.4317H8.90117L6.52273 7.62048H6.5244Z" fill="url(#paint4_linear_1_1746)"/>
<path d="M0 11.432C0.00167378 11.7182 0.0769939 12.0044 0.224287 12.2622L1.93991 15.2365L6.52273 15.2415L8.90117 11.432H0Z" fill="url(#paint5_linear_1_1746)"/>
<defs>
<linearGradient id="paint0_linear_1_1746" x1="9.52401" y1="17.3471" x2="16.7397" y2="0.692944" gradientUnits="userSpaceOnUse">
<stop stop-color="#062B25"/>
<stop offset="1" stop-color="#1E8A7A"/>
</linearGradient>
<linearGradient id="paint1_linear_1_1746" x1="7.13352" y1="22.5274" x2="19.6166" y2="3.72245" gradientUnits="userSpaceOnUse">
<stop stop-color="#062B25"/>
<stop offset="1" stop-color="#3CB989"/>
</linearGradient>
<linearGradient id="paint2_linear_1_1746" x1="11.7548" y1="9.82323" x2="21.5598" y2="21.3723" gradientUnits="userSpaceOnUse">
<stop stop-color="#062B25"/>
<stop offset="1" stop-color="#1E8A7A"/>
</linearGradient>
<linearGradient id="paint3_linear_1_1746" x1="4.32147" y1="1.0998" x2="16.0413" y2="20.5425" gradientUnits="userSpaceOnUse">
<stop stop-color="#062B25"/>
<stop offset="1" stop-color="#3CB989"/>
</linearGradient>
<linearGradient id="paint4_linear_1_1746" x1="23.3057" y1="9.44658" x2="2.8538" y2="9.53864" gradientUnits="userSpaceOnUse">
<stop stop-color="#062B25"/>
<stop offset="1" stop-color="#1E8A7A"/>
</linearGradient>
<linearGradient id="paint5_linear_1_1746" x1="28.2417" y1="14.105" x2="3.25383" y2="13.2614" gradientUnits="userSpaceOnUse">
<stop stop-color="#062B25"/>
<stop offset="1" stop-color="#3CB989"/>
</linearGradient>
</defs>
</svg>
