<svg width="108" height="24" viewBox="0 0 108 24" fill="none" xmlns="http://www.w3.org/2000/svg">
<g clip-path="url(#clip0_1_1745)">
<path d="M4.14417 4.3772H8.54286L12.9416 12.0013H8.90273L4.14417 4.3772Z" fill="#5ED9A6"/>
<path d="M8.54303 4.37923L10.7457 0.569702L14.9637 8.50008L12.9417 12L8.54303 4.37755V4.37923Z" fill="#3CB989"/>
<path d="M5.86012 1.40493L4.14282 4.37756H8.54152L10.7442 0.569709H7.31129C6.71375 0.568035 6.15973 0.887727 5.8618 1.40493H5.86012Z" fill="#1E8A7A"/>
<path d="M12.9398 12H21.7389L23.9399 8.19214L14.9617 8.50011L12.9398 12Z" fill="#3CB989"/>
<path d="M21.7392 12.003L23.9369 15.8142L25.6542 12.8416C25.9538 12.3244 25.9538 11.6867 25.6542 11.1678L23.9386 8.19348L21.7375 12.003H21.7392Z" fill="#1E8A7A"/>
<path d="M12.9398 11.9996L14.9601 15.4995L23.9366 15.8125L21.7389 12.0013H12.9398V11.9996Z" fill="#5ED9A6"/>
<path d="M12.9398 11.9996L8.53776 19.617H4.13739L8.90097 11.9996H12.9398Z" fill="#3CB989"/>
<path d="M8.53827 19.6191L10.7359 23.4303L14.9606 15.5016L12.9403 12.0017L8.53827 19.6191Z" fill="#1E8A7A"/>
<path d="M4.13739 19.6174L5.85302 22.5917C6.15262 23.1089 6.70497 23.4286 7.30251 23.4286H10.7371L8.53944 19.6191H4.13906L4.13739 19.6174Z" fill="#5ED9A6"/>
<path d="M19.411 0.793989L14.9621 8.50008L12.8565 4.53154L15.1429 0.569702H18.5775C18.8754 0.571376 19.16 0.651717 19.411 0.793989Z" fill="url(#paint0_linear_1_1745)"/>
<path d="M21.7389 4.37751L19.4509 8.35107L14.9618 8.50004L19.4107 0.793945C19.6618 0.937891 19.876 1.14711 20.025 1.40822L21.7389 4.37751Z" fill="url(#paint1_linear_1_1745)"/>
<path d="M21.7356 19.6188L19.9815 22.6567C19.8358 22.886 19.6383 23.0735 19.409 23.2057L15.1426 15.8093L14.9618 15.4996L19.4525 15.657L21.7373 19.6188H21.7356Z" fill="url(#paint2_linear_1_1745)"/>
<path d="M14.96 15.5L12.8477 19.4635L15.1324 23.4253H18.6825H18.6859C18.9436 23.4069 19.188 23.3299 19.4056 23.2044L14.9584 15.4983L14.96 15.5Z" fill="url(#paint3_linear_1_1745)"/>
<path d="M6.5244 8.19019H1.93824L0.207549 11.1896C0.068625 11.4423 0 11.7219 0 12.0014H8.90117L6.52273 8.19019H6.5244Z" fill="url(#paint4_linear_1_1745)"/>
<path d="M0 12.0017C0.00167378 12.2879 0.0769939 12.5741 0.224287 12.8319L1.93991 15.8062L6.52273 15.8112L8.90117 12.0017H0Z" fill="url(#paint5_linear_1_1745)"/>
<path d="M29.2014 8.71705C29.742 7.69604 30.4785 6.91104 31.4108 6.36204C32.3431 5.81304 33.3842 5.53687 34.5324 5.53687C35.5132 5.53687 36.3769 5.72433 37.1167 6.10093C37.8582 6.47753 38.4289 6.97297 38.8273 7.58557V5.72433H43.0971V18.8702H38.8273V17.009C38.4105 17.6216 37.8331 18.1153 37.0916 18.4919C36.3501 18.8685 35.4881 19.056 34.5073 19.056C33.3741 19.056 32.3431 18.7781 31.4108 18.2208C30.4785 17.6634 29.7403 16.87 29.2014 15.8407C28.6591 14.8113 28.3896 13.6229 28.3896 12.2722C28.3896 10.9214 28.6607 9.73638 29.2014 8.71538V8.71705ZM37.9419 9.91882C37.351 9.33635 36.6313 9.04678 35.781 9.04678C34.9307 9.04678 34.211 9.333 33.6202 9.90711C33.0293 10.4812 32.7331 11.2696 32.7331 12.2738C32.7331 13.2781 33.0293 14.0765 33.6202 14.6657C34.211 15.2548 34.9324 15.5494 35.781 15.5494C36.6296 15.5494 37.351 15.2599 37.9419 14.6774C38.5327 14.0949 38.829 13.3032 38.829 12.2973C38.829 11.2913 38.5327 10.4996 37.9419 9.91715V9.91882Z" fill="white"/>
<path d="M50.4279 6.10227C51.1594 5.72567 52.018 5.53821 52.9989 5.53821C54.1471 5.53821 55.1882 5.81271 56.1205 6.36338C57.0527 6.91238 57.7909 7.69906 58.3298 8.71839C58.8705 9.7394 59.1416 10.9244 59.1416 12.2752C59.1416 13.6259 58.8705 14.816 58.3298 15.8437C57.7875 16.8731 57.0527 17.6648 56.1205 18.2238C55.1882 18.7812 54.1471 19.059 52.9989 19.059C52.0331 19.059 51.1794 18.8716 50.438 18.495C49.6965 18.1183 49.119 17.6313 48.7023 17.0337V24H44.4324V5.724H48.7023V7.58524C49.1173 6.97264 49.6931 6.47887 50.4246 6.1006H50.4262L50.4279 6.10227ZM53.9111 9.9051C53.3202 9.33267 52.5921 9.04478 51.7268 9.04478C50.8614 9.04478 50.1568 9.33434 49.5659 9.91682C48.9751 10.4993 48.6788 11.291 48.6788 12.2969C48.6788 13.3029 48.9751 14.0946 49.5659 14.6771C50.1568 15.2595 50.8782 15.5491 51.7268 15.5491C52.5754 15.5491 53.3001 15.2562 53.8993 14.6653C54.4986 14.0762 54.7982 13.2794 54.7982 12.2735C54.7982 11.2676 54.5019 10.4792 53.9111 9.90678H53.9127L53.9111 9.9051Z" fill="white"/>
<path d="M66.0949 6.10227C66.8263 5.72567 67.6849 5.53821 68.6658 5.53821C69.814 5.53821 70.8551 5.81271 71.7874 6.36338C72.7197 6.91238 73.4561 7.69906 73.9968 8.71839C74.5374 9.7394 74.8086 10.9244 74.8086 12.2752C74.8086 13.6259 74.5374 14.816 73.9968 15.8437C73.4545 16.8731 72.7197 17.6648 71.7874 18.2238C70.8551 18.7812 69.814 19.059 68.6658 19.059C67.7 19.059 66.8464 18.8716 66.1049 18.495C65.3634 18.1183 64.786 17.6313 64.3692 17.0337V24H60.0994V5.724H64.3692V7.58524C64.7843 6.97264 65.3601 6.47887 66.0915 6.1006H66.0932L66.0949 6.10227ZM69.578 9.9051C68.9871 9.33267 68.2591 9.04478 67.3937 9.04478C66.5284 9.04478 65.8237 9.33434 65.2329 9.91682C64.642 10.4993 64.3457 11.291 64.3457 12.2969C64.3457 13.3029 64.642 14.0946 65.2329 14.6771C65.8237 15.2595 66.5434 15.5491 67.3937 15.5491C68.244 15.5491 68.9671 15.2562 69.5646 14.6653C70.1638 14.0762 70.4634 13.2794 70.4634 12.2735C70.4634 11.2676 70.1672 10.4792 69.5763 9.90678H69.578V9.9051Z" fill="white"/>
<path d="M76.5512 3.73253C76.0775 3.31744 75.8381 2.80191 75.8381 2.18931C75.8381 1.5767 76.0758 1.03942 76.5512 0.622647C77.0248 0.207549 77.6375 0 78.3873 0C79.1372 0 79.723 0.209223 80.1967 0.622647C80.6703 1.03942 80.9097 1.55996 80.9097 2.18931C80.9097 2.81865 80.6737 3.31744 80.1967 3.73253C79.723 4.1493 79.1187 4.35518 78.3873 4.35518C77.6559 4.35518 77.0265 4.14596 76.5512 3.73253ZM80.5097 5.72433V18.8702H76.2398V5.72433H80.5097Z" fill="white"/>
<path d="M86.1183 1.43604V18.8685H81.8484V1.43604H86.1183Z" fill="white"/>
<path d="M87.767 3.73253C87.2934 3.31744 87.054 2.80191 87.054 2.18931C87.054 1.5767 87.2917 1.03942 87.767 0.622647C88.2407 0.207549 88.8533 0 89.6032 0C90.353 0 90.9389 0.209223 91.4125 0.622647C91.8862 1.03942 92.1256 1.55996 92.1256 2.18931C92.1256 2.81865 91.8896 3.31744 91.4125 3.73253C90.9389 4.1493 90.3346 4.35518 89.6032 4.35518C88.8717 4.35518 88.2424 4.14596 87.767 3.73253ZM91.7239 5.72433V18.8702H87.4541V5.72433H91.7239Z" fill="white"/>
<path d="M102.715 18.8683L100.044 15.2161L97.796 18.8683H93.1764L97.7726 12.1548L93.0542 5.72241H97.8479L100.519 9.3495L102.767 5.72241H107.387L102.717 12.3422L107.512 18.8666H102.715V18.8683Z" fill="white"/>
</g>
<defs>
<linearGradient id="paint0_linear_1_1745" x1="9.52401" y1="17.9168" x2="16.7397" y2="1.26265" gradientUnits="userSpaceOnUse">
<stop stop-color="#062B25"/>
<stop offset="1" stop-color="#1E8A7A"/>
</linearGradient>
<linearGradient id="paint1_linear_1_1745" x1="7.13352" y1="23.0971" x2="19.6166" y2="4.29215" gradientUnits="userSpaceOnUse">
<stop stop-color="#062B25"/>
<stop offset="1" stop-color="#3CB989"/>
</linearGradient>
<linearGradient id="paint2_linear_1_1745" x1="11.7548" y1="10.3929" x2="21.5598" y2="21.942" gradientUnits="userSpaceOnUse">
<stop stop-color="#062B25"/>
<stop offset="1" stop-color="#1E8A7A"/>
</linearGradient>
<linearGradient id="paint3_linear_1_1745" x1="4.32147" y1="1.66951" x2="16.0413" y2="21.1122" gradientUnits="userSpaceOnUse">
<stop stop-color="#062B25"/>
<stop offset="1" stop-color="#3CB989"/>
</linearGradient>
<linearGradient id="paint4_linear_1_1745" x1="23.3057" y1="10.0163" x2="2.8538" y2="10.1083" gradientUnits="userSpaceOnUse">
<stop stop-color="#062B25"/>
<stop offset="1" stop-color="#1E8A7A"/>
</linearGradient>
<linearGradient id="paint5_linear_1_1745" x1="28.2417" y1="14.6747" x2="3.25383" y2="13.8312" gradientUnits="userSpaceOnUse">
<stop stop-color="#062B25"/>
<stop offset="1" stop-color="#3CB989"/>
</linearGradient>
<clipPath id="clip0_1_1745">
<rect width="107.512" height="24.0001" fill="white"/>
</clipPath>
</defs>
</svg>
